<?xml version="1.0" standalone="no"?>
<!DOCTYPE svg PUBLIC "-//W3C//DTD SVG 20010904//EN"
 "http://www.w3.org/TR/2001/REC-SVG-20010904/DTD/svg10.dtd">
<svg version="1.0" xmlns="http://www.w3.org/2000/svg"
 width="2168.000000pt" height="2167.000000pt" viewBox="0 0 2168.000000 2167.000000"
 preserveAspectRatio="xMidYMid meet">

<g transform="translate(0.000000,2167.000000) scale(0.100000,-0.100000)"
fill="#000000" stroke="none">
<path d="M10565 20124 c-1815 -67 -3453 -597 -4925 -1592 -505 -341 -894 -664
-1356 -1126 -314 -315 -443 -457 -679 -751 -1765 -2196 -2430 -5062 -1818
-7825 237 -1072 675 -2111 1281 -3040 117 -179 344 -500 355 -500 5 0 438 320
496 366 1 1 -37 58 -86 126 -947 1306 -1499 2821 -1623 4458 -30 388 -23 993
16 1410 205 2215 1247 4250 2929 5720 1297 1134 2890 1848 4605 2064 593 75
1284 86 1880 30 1659 -155 3229 -780 4529 -1802 470 -370 982 -870 1357 -1327
1804 -2199 2409 -5138 1623 -7880 -269 -936 -732 -1886 -1294 -2656 -52 -72
-95 -134 -95 -138 0 -9 462 -358 485 -367 21 -9 277 354 478 677 222 358 475
841 630 1204 448 1051 687 2082 748 3240 13 241 7 861 -10 1080 -125 1586
-574 2965 -1395 4283 -557 895 -1328 1745 -2176 2403 -814 631 -1723 1122
-2685 1449 -794 269 -1580 425 -2425 479 -169 11 -700 20 -845 15z"/>
<path d="M10635 17434 c-1182 -63 -2072 -591 -2542 -1509 -197 -385 -325 -849
-340 -1235 -11 -295 39 -1310 127 -2550 60 -836 74 -971 126 -1200 81 -361
194 -659 328 -865 31 -48 101 -131 161 -191 l105 -107 0 -612 0 -613 -1197
-448 c-1154 -433 -1202 -452 -1357 -538 -520 -287 -821 -537 -1037 -860 -97
-144 -167 -286 -219 -446 l-40 -121 0 -727 0 -727 143 -141 c78 -78 185 -179
237 -225 1307 -1161 2966 -1856 4835 -2024 539 -48 1171 -48 1725 0 1973 172
3760 963 5073 2244 l147 144 0 726 0 726 -45 133 c-180 536 -546 911 -1285
1317 -58 32 -647 290 -1310 575 l-1205 517 -3 554 -2 553 78 76 c43 41 101
103 129 136 220 268 404 836 453 1399 95 1089 203 3018 185 3325 -13 216 -84
558 -165 792 -379 1100 -1260 1775 -2482 1902 -146 16 -497 27 -623 20z m490
-634 c455 -39 868 -172 1184 -380 453 -298 755 -740 901 -1320 66 -263 73
-332 66 -680 -10 -555 -98 -2029 -176 -2943 -34 -405 -140 -792 -279 -1027
-81 -136 -380 -386 -757 -633 -364 -238 -732 -420 -1001 -494 -84 -23 -117
-27 -233 -27 -158 0 -248 21 -462 105 -439 173 -1065 575 -1405 902 -89 86
-108 111 -153 197 -94 183 -154 371 -214 670 -55 269 -200 2467 -213 3220 -6
381 -2 437 58 683 65 269 192 570 324 767 287 428 687 712 1221 864 133 38
375 81 529 95 144 12 470 13 610 1z m-1447 -7765 c479 -260 914 -392 1220
-371 374 26 853 216 1387 550 l150 94 3 -512 c1 -281 0 -516 -2 -523 -7 -18
-263 -167 -436 -254 -348 -174 -671 -281 -965 -320 -130 -17 -403 -6 -530 21
-411 88 -843 327 -1214 671 l-71 67 0 425 0 426 158 -98 c86 -54 221 -133 300
-176z m4494 -1518 c1093 -469 1176 -508 1453 -692 332 -220 543 -462 635 -729
19 -57 20 -83 20 -606 l0 -546 -123 -112 c-1337 -1211 -3080 -1880 -5052
-1941 -2148 -66 -4113 607 -5565 1906 l-155 139 -3 555 c-3 626 -8 581 81 753
111 215 283 389 577 585 325 215 306 207 1588 688 636 238 1167 436 1179 439
18 5 40 -10 105 -70 121 -110 256 -216 403 -315 1022 -692 1997 -681 3246 34
130 75 433 271 514 334 22 17 45 29 50 27 6 -2 477 -204 1047 -449z"/>
</g>
</svg>
