<?xml version="1.0" standalone="no"?>
<!DOCTYPE svg PUBLIC "-//W3C//DTD SVG 20010904//EN"
 "http://www.w3.org/TR/2001/REC-SVG-20010904/DTD/svg10.dtd">
<svg version="1.0" xmlns="http://www.w3.org/2000/svg"
 width="225.000000pt" height="225.000000pt" viewBox="0 0 225.000000 225.000000"
 preserveAspectRatio="xMidYMid meet">

<g transform="translate(0.000000,225.000000) scale(0.100000,-0.100000)"
fill="#000000" stroke="none">
<path d="M996 2119 c-125 -29 -267 -142 -325 -256 -52 -105 -61 -156 -61 -365
l0 -188 40 0 40 0 0 164 c0 90 5 187 10 217 39 206 220 359 425 359 205 0 386
-153 425 -359 5 -30 10 -127 10 -217 l0 -164 40 0 40 0 0 188 c0 209 -9 260
-61 365 -59 117 -200 226 -329 256 -54 13 -200 12 -254 0z"/>
<path d="M462 1209 c-38 -15 -75 -48 -99 -87 -23 -37 -23 -40 -23 -450 0 -385
1 -415 19 -450 22 -42 43 -63 88 -86 29 -14 102 -16 678 -16 576 0 649 2 678
16 45 23 66 44 88 86 18 35 19 65 19 449 0 404 0 412 -22 450 -12 21 -39 51
-61 66 l-40 28 -651 2 c-394 1 -660 -2 -674 -8z m224 -364 c10 -15 15 -38 12
-60 -5 -41 -3 -41 40 -15 53 33 92 21 92 -27 0 -16 -13 -30 -46 -49 l-46 -27
34 -18 c46 -24 61 -44 54 -73 -8 -34 -38 -37 -86 -10 -23 13 -43 24 -44 24 -1
0 0 -15 2 -32 2 -18 -1 -46 -7 -61 -9 -24 -16 -28 -43 -25 -33 3 -33 4 -36 61
-2 31 -4 57 -6 57 -2 0 -23 -11 -48 -25 -41 -23 -46 -23 -66 -9 -40 28 -25 62
42 96 l29 15 -42 24 c-44 26 -61 60 -41 84 17 20 43 19 82 -5 18 -11 36 -20
41 -20 4 0 7 22 7 48 0 72 42 98 76 47z m474 6 c5 -11 10 -38 10 -60 0 -23 2
-41 4 -41 3 0 21 9 41 21 39 23 79 20 89 -7 9 -23 -9 -49 -51 -74 l-37 -22 39
-23 c47 -29 59 -48 46 -74 -17 -30 -36 -31 -85 -5 l-46 24 0 -48 c0 -52 -12
-72 -45 -72 -33 0 -45 20 -45 72 l0 47 -46 -24 c-49 -26 -75 -23 -88 11 -9 23
5 42 49 69 l39 23 -37 22 c-42 25 -60 51 -51 74 10 27 50 30 89 7 20 -12 38
-21 41 -21 2 0 4 18 4 41 0 53 15 79 45 79 14 0 29 -8 35 -19z m468 7 c7 -7
12 -34 12 -60 0 -26 3 -48 8 -48 4 0 22 9 40 20 39 24 65 25 82 5 20 -24 3
-58 -41 -84 l-42 -24 29 -15 c67 -34 82 -68 42 -96 -20 -14 -25 -14 -66 9 -25
14 -46 25 -48 25 -2 0 -4 -26 -6 -57 -3 -57 -3 -58 -36 -61 -27 -3 -34 1 -43
25 -6 15 -9 43 -7 61 2 17 3 32 2 32 -1 0 -21 -11 -46 -25 -41 -23 -46 -23
-66 -9 -40 28 -25 62 42 96 l28 15 -46 27 c-33 19 -46 33 -46 49 0 48 39 60
92 27 43 -26 45 -26 40 15 -7 61 41 108 76 73z"/>
</g>
</svg>
