<?xml version="1.0" standalone="no"?>
<!DOCTYPE svg PUBLIC "-//W3C//DTD SVG 20010904//EN"
 "http://www.w3.org/TR/2001/REC-SVG-20010904/DTD/svg10.dtd">
<svg version="1.0" xmlns="http://www.w3.org/2000/svg"
 width="626.000000pt" height="626.000000pt" viewBox="0 0 626.000000 626.000000"
 preserveAspectRatio="xMidYMid meet">

<g transform="translate(0.000000,626.000000) scale(0.100000,-0.100000)"
fill="#000000" stroke="none">
<path d="M2962 5729 c-1308 -79 -2358 -1137 -2431 -2449 -50 -900 350 -1739
1082 -2268 778 -563 1832 -644 2693 -207 261 133 450 271 664 485 204 203 339
386 469 632 416 789 391 1761 -66 2533 -393 664 -1053 1117 -1813 1244 -103
17 -419 45 -455 39 -5 0 -70 -5 -143 -9z m353 -738 c186 -38 340 -125 473
-266 127 -134 201 -276 237 -454 23 -112 16 -304 -15 -410 -97 -339 -362 -586
-700 -656 l-55 -11 95 -13 c287 -37 557 -154 785 -341 84 -69 233 -222 296
-305 160 -209 302 -483 400 -772 l38 -113 -1739 0 -1738 0 18 58 c132 414 336
767 587 1014 109 108 166 154 280 229 188 123 431 209 661 235 l64 7 -93 23
c-263 67 -476 238 -596 479 -113 225 -124 497 -32 735 113 292 390 519 694
569 91 15 245 12 340 -8z"/>
</g>
</svg>
